<?xml version="1.0" encoding="utf-8"?>
<!-- Generator: Adobe Illustrator 24.1.1, SVG Export Plug-In . SVG Version: 6.00 Build 0)  -->
<svg version="1.1" id="_x2014_ÎÓÈ_x5F_1" xmlns="http://www.w3.org/2000/svg" xmlns:xlink="http://www.w3.org/1999/xlink"
	 x="0px" y="0px" viewBox="0 0 1920 1580.6" style="enable-background:new 0 0 1920 1580.6;" xml:space="preserve">
<style type="text/css">
	.st0{fill:#B1199F;}
	.st1{fill:#301701;}
	.st2{fill:#261101;}
</style>
<path class="st0" d="M0.7,670.9c0,0,17.5-4.3,41.2-10.2s53.5-1,78.2-20.1c24.7-1.1,44.2-8.4,47.2-13.9c2.2,14,12.2-12,26.5-8.7
	c14.3-13.7,33.1-11.9,53.1-12.1c20,0.4,41.2-13.5,60.5-7.1c9.6,3.9,18.8,4.2,27,4.2s15.6-0.4,21.6,2.3c16.1-2.9,32.3,21,48.8,12.7
	c16.4,10.2,33.1,3.6,50,5c16.9,5.7,34,0.4,51.5,11.8c14.7,11.1,32.5,15.2,51.4,18.7c18.9,11.6,38.9,13.6,57.9,20.2
	c38,13.1,72.1,24.9,85.6,30.4c18,7.4,56.5,15.1,95.8,15.1c19.7,0,39.5-1.2,57.2-6.8c13.2,3.9,28.3-10.7,44.3-16.2
	c16-3.2,34.3-28.7,50.2-22.2c18.4,7.5,34.4-16.1,50.9-21.6c16.5-9.4,32.9-19,47.1-24.8c19-5.9,36.6,8.7,53.6,12.7
	c17,3.9,33,9.8,47.7,13.8c11,3,21.3,4.6,30.9,3.8c4.9-0.4,9.5-2.3,13.6-4.9c13.9-8.6,22.6,4.3,33.9-3.2c16.7-11.1,19.3-3.4,31.3-1.1
	c3.4,0.7,6.7,1.8,9.8,3.4c15.3,8.1,35.7-7.6,52.6-6.4c18-0.2,31.3-3.3,44.8-11.9c11.8-9.3,23.8-19.2,39.3-13.2
	c4.9,1.9,10.2,2.5,15.4,2.2c17.4-0.9,38.9,5.8,67.8,15.1c101.7,33,167.7-16.3,212.7,0c45,16.4,165-39.3,165-39.3l55.4,4.1v583.8H0.7
	V670.9z"/>
<path class="st1" d="M1920.4,444.7c-0.3,0.5-0.7,0.7-0.7,0.7s-0.5,0.7-0.6,0.7s-0.1,0-0.3,0.2c-0.2,0.2-0.8-0.3-1,0
	s-0.8-0.1-0.6,0.3c0.2,0.4-0.7,0-0.7,0c0-0.2,0.1-0.6,0-0.7s0.3-0.4,0.3-0.3s0,0.5,0,0.5s0.4,0.3,0.5-0.2c0-0.5,0.2-0.8,0.4-0.8
	c0.2,0.1,0.6-0.3,0.6,0s0.3,0.7,0.3,0.7l0.4-0.1c0,0-0.1-0.1,0.1-0.4c0.3-0.6,0.3-0.5,0.3-0.8s0.6-0.6,0.6-0.3
	C1920,444.3,1920.6,444.2,1920.4,444.7z"/>
<path class="st1" d="M1920.4,525.3c0-0.2-0.1,0.1,0,0.4C1920.4,525.5,1920.4,525.4,1920.4,525.3z"/>
<path class="st2" d="M764,1130.8c0.3-0.2,0.1-0.9,0-1.6c0,0.2-0.1,0.5-0.1,0.7C763.9,1130,763.9,1130.4,764,1130.8
	C764,1130.8,764,1130.8,764,1130.8z"/>
<path class="st2" d="M776,1128.5c0-0.1-0.1-0.1-0.1-0.2C775.9,1128.4,775.9,1128.5,776,1128.5z"/>
<path class="st2" d="M1189.6,1014.6c0.3-0.2,0.1-0.9,0-1.6c0,0.2-0.1,0.5-0.1,0.7C1189.5,1013.8,1189.5,1014.2,1189.6,1014.6
	C1189.5,1014.6,1189.6,1014.6,1189.6,1014.6z"/>
<path class="st2" d="M1201.6,1012.3c0-0.1-0.1-0.1-0.1-0.2C1201.5,1012.2,1201.5,1012.3,1201.6,1012.3z"/>
</svg>
