<?xml version="1.0" encoding="utf-8"?>
<!-- Generator: Adobe Illustrator 21.0.2, SVG Export Plug-In . SVG Version: 6.00 Build 0)  -->
<svg version="1.1" id="_x2014_ÎÓÈ_x5F_1" xmlns="http://www.w3.org/2000/svg" xmlns:xlink="http://www.w3.org/1999/xlink"
	 x="0px" y="0px" viewBox="0 0 1920 1580.6" style="enable-background:new 0 0 1920 1580.6;" xml:space="preserve">
<style type="text/css">
	.st0{fill:#FFFFFF;}
</style>
<path class="st0" d="M1922.9,1299.7c0,0-17.5-4.3-41.3-10.3c-23.7-5.9-53.6-1-78.4-20.1c-24.7-1.1-44.3-8.4-47.3-14
	c-2.3,14.1-12.2-12-26.6-8.7c-14.4-13.7-33.2-11.9-53.3-12.1c-20.1,0.4-41.3-13.5-60.6-7.1c-9.6,3.9-18.8,4.2-27,4.2
	c-8.2,0-15.6-0.4-21.6,2.3c-16.1-2.9-32.4,21-48.9,12.8c-16.5,10.3-33.2,3.6-50.1,5c-16.9,5.7-34.1,0.4-51.6,11.8
	c-14.7,11.2-32.6,15.3-51.5,18.7c-19,11.6-39,13.6-58.1,20.2c-38.1,13.2-72.3,24.9-85.8,30.5c-18,7.4-56.6,15.1-96,15.1
	c-19.7,0-39.6-1.2-57.3-6.8c-13.2,3.9-28.3-10.7-44.4-16.2c-16.1-3.2-34.3-28.8-50.3-22.3c-18.4,7.5-34.5-16.2-51-21.7
	c-16.6-9.4-32.9-19.1-47.2-24.9c-19-5.9-36.7,8.8-53.7,12.7c-17.1,4-33.1,9.8-47.8,13.8c-11.1,3-21.4,4.6-30.9,3.9
	c-4.9-0.4-9.5-2.3-13.6-4.9c-13.9-8.6-22.6,4.3-33.9-3.2c-16.7-11.1-19.3-3.4-31.4-1.1c-3.4,0.7-6.8,1.8-9.8,3.4
	c-15.3,8.1-35.8-7.6-52.7-6.4c-18-0.2-31.3-3.3-44.9-11.9c-11.9-9.3-23.9-19.2-39.4-13.2c-4.9,1.9-10.2,2.5-15.4,2.2
	c-17.4-0.9-39,5.8-67.9,15.1c-101.9,33-168.1-16.4-213.2,0s-165.3-39.3-165.3-39.3l-55.5,4.1v349.2h1924V1299.7z"/>
</svg>
