<?xml version="1.0" encoding="utf-8"?>
<!-- Generator: Adobe Illustrator 24.1.1, SVG Export Plug-In . SVG Version: 6.00 Build 0)  -->
<svg version="1.1" id="_x2014_ÎÓÈ_x5F_1" xmlns="http://www.w3.org/2000/svg" xmlns:xlink="http://www.w3.org/1999/xlink"
	 x="0px" y="0px" viewBox="0 0 1920 1580.6" style="enable-background:new 0 0 1920 1580.6;" xml:space="preserve">
<style type="text/css">
	.st0{fill:#971187;}
	.st1{fill:#301701;}
	.st2{fill:#261101;}
</style>
<path class="st0" d="M0.7,696.1c0,0,17.5-4.1,41.2-9.7s53.5-12.8,78.2-19.1c24.7-8.9,44.2-10.9,47.2-13.2
	c2.2-6.4,12.2,1.6,26.5-12.7c14.3-15.1,33.1-23.3,53.1-21.3c20-7,41.2-4.4,60.5-16.5c19.3-13.2,36.5-4.1,48.6,1.7
	c8,3.4,15.8,5.4,23.5,6.4c7.6-2.3,15.1,7.3,22.6,1.1c14.9,9.6,29.4,3.9,44.5-1.1c15.1-0.8,30.6,7.9,47.3,15.8
	c12.5,6.1,30.4,12.1,50.7,27.5c20.2,2.5,42.8,11.6,64.7,29.4c10.9,4.7,21.7,9.3,31.9,13.5c10.2,12.4,19.8,3.3,28.5,11.7
	c8.7-3.9,16.4,7,22.8,9.2c6.4,12,11.5,6.3,14.9,5.9c9,7.4,24.5,9.1,43,9.8c18.6-12.9,40.2-0.4,61.7,4.5c10.7,0.8,21.4,0.9,31.6-0.1
	c10.2-1,19.9-3,28.7-6.4c6.6-8.2,13.2-1.4,19.9-8c1.3-0.2,12.8-1.6,27.3,0c10.5-3.4,14,1.9,25.1,5.7c4.3-0.6,16.1-7.6,20.3-6.4
	c13.4,3.8,27.5,2.8,40.7-1.7c2.8-1,5.6-1.5,8.3-1.6c11.1-7.4,21.4-9.2,32.6-2.1c6.6-4.2,13.5-5.1,21-3.8c8.5,1.5,17-0.9,24.1-5.7
	c4.9-3.3,10.8-4.8,17.5-4.8c7.9-5.8,18.3-6.9,27.2-7.7c17.6-1.9,29.1-2.9,30.5-2.6c7.1,2.5,13.7,4.7,19.7,0.6
	c12-11,23.7-11.7,36.1-11.2c12.3-6.8,25.2-0.2,39.6-10.6c7.2-4.8,14.7-5.1,22.7-5c8-4,16.4,0.5,25.4-2.7c6.7,3.5,8.3,5,19.7-1.3
	c6.4-3.3,12.8-8.8,19.2-11.5c9.7-8.3,19.6-13.9,30.3-14c10.7,6.4,22.5,1.1,35.3,7.9c12.8,11.6,26.7-18.9,42.8-13.2
	c16.1,7.7,34.2,23.1,54.8,24.3c24.5,14.8,45.7,21.6,64.4,23.9c56.1,6.8,89.7-27.9,123.4-16.2c45,15.6,165-37.3,165-37.3l55.4,3.9
	v555.2H0.7V696.1z"/>
<path class="st1" d="M1920.4,444.7c-0.3,0.5-0.7,0.7-0.7,0.7s-0.5,0.7-0.6,0.7s-0.1,0-0.3,0.2c-0.2,0.2-0.8-0.3-1,0
	s-0.8-0.1-0.6,0.3c0.2,0.4-0.7,0-0.7,0c0-0.2,0.1-0.6,0-0.7s0.3-0.4,0.3-0.3s0,0.5,0,0.5s0.4,0.3,0.5-0.2c0-0.5,0.2-0.8,0.4-0.8
	c0.2,0.1,0.6-0.3,0.6,0s0.3,0.7,0.3,0.7l0.4-0.1c0,0-0.1-0.1,0.1-0.4c0.3-0.6,0.3-0.5,0.3-0.8s0.6-0.6,0.6-0.3
	C1920,444.3,1920.6,444.2,1920.4,444.7z"/>
<path class="st1" d="M1920.4,525.3c0-0.2-0.1,0.1,0,0.4C1920.4,525.5,1920.4,525.4,1920.4,525.3z"/>
<path class="st2" d="M764,1130.8c0.3-0.2,0.1-0.9,0-1.6c0,0.2-0.1,0.5-0.1,0.7C763.9,1130,763.9,1130.4,764,1130.8
	C764,1130.8,764,1130.8,764,1130.8z"/>
<path class="st2" d="M776,1128.5c0-0.1-0.1-0.1-0.1-0.2C775.9,1128.4,775.9,1128.5,776,1128.5z"/>
<path class="st2" d="M1189.6,1014.6c0.3-0.2,0.1-0.9,0-1.6c0,0.2-0.1,0.5-0.1,0.7C1189.5,1013.8,1189.5,1014.2,1189.6,1014.6
	C1189.5,1014.6,1189.6,1014.6,1189.6,1014.6z"/>
<path class="st2" d="M1201.6,1012.3c0-0.1-0.1-0.1-0.1-0.2C1201.5,1012.2,1201.5,1012.3,1201.6,1012.3z"/>
</svg>
