<?xml version="1.0" encoding="utf-8"?>
<!-- Generator: Adobe Illustrator 24.1.1, SVG Export Plug-In . SVG Version: 6.00 Build 0)  -->
<svg version="1.1" id="_x2014_ÎÓÈ_x5F_1" xmlns="http://www.w3.org/2000/svg" xmlns:xlink="http://www.w3.org/1999/xlink"
	 x="0px" y="0px" viewBox="0 0 1920 1580.6" style="enable-background:new 0 0 1920 1580.6;" xml:space="preserve">
<style type="text/css">
	.st0{fill:#850A77;}
	.st1{fill:#301701;}
	.st2{fill:#261101;}
</style>
<path class="st0" d="M38.5,639.5c8.4,0,23.9-0.5,43.1-0.6c19.1-0.1,42-5.6,65,1.6c23.1-1.1,46.4,10.7,66.6,9
	c20.2,9.9,37.3,20.4,47.8,21.8c14.1,13.3,31.2,22,48.5,27.2s34.7,7,49.2,6.2s26.1-15,31.7-8.8c5.6-0.3,19.2-13.3,36.2-5.3
	c17,9.3,37.5,1,57.2,8.2c19.6,6.3,38.4,13.5,51.9,15.2c13.5,2.8,28.7-1.3,44.2,10.1c7.7,1.5,15.6,2.1,23.2,2.7
	c7.7-6.7,15.2-1.8,22.5,1.9c7.2,1.5,14.2-5.6,20.6,3.7c6.4-4.1,12.4,2.5,17.6,6.4c7.9,3.9,21.5,4.8,38,9.6
	c16.4-4.2,35.7,14.9,54.8,5.4c19.1-3.6,38.1-0.2,54,3c15.9,11.4,28.7,1.8,35.4,2.7c4.5,2.2,10.9,2.6,18.7,2.6
	c7.8-3.3,16.9,1.1,26.7-0.7c13.1,0.4,27.6,12.1,41.9,9.7c14.3-0.4,28.3-10.5,40.9-11.1c12.6,9.7,23.6-4.4,31.6-0.5
	c9.5,7.9,18.7,9.2,27.8,1.7c5-4.1,11-6.9,17.5-7.3c4.6-0.2,9.2-1.2,13.9-3.5c5.7-2.7,11.9-3.9,18.2-3.6c3.2,0.2,6.5-0.8,9.8-1.9
	c6.1-6.1,12.2-7.6,18.6-2c6.4-6.7,14.1-0.3,22.7,3c8.6-7.1,17.9,8.5,27.6,8.7c19.2-4.4,39.5,11.3,56.2,10.2
	c16.7,4.8,30-6.4,35.2-3.4c3.9-6.6,17.2-16.9,34.8-18c17.6-3.9,39.6-3,61.1-25.6c21.5-8.7,42.5-16.9,58.2-22.9
	c15.6-6.1,25.9-9.9,25.9-9.9s173.2,22.1,209.2,17.3c36-4.9,278-93.3,278-66.7s0,550.9,0,550.9H0.7v-559h27L38.5,639.5z"/>
<path class="st1" d="M1920.4,444.7c-0.3,0.5-0.7,0.7-0.7,0.7s-0.5,0.7-0.6,0.7s-0.1,0-0.3,0.2c-0.2,0.2-0.8-0.3-1,0
	s-0.8-0.1-0.6,0.3c0.2,0.4-0.7,0-0.7,0c0-0.2,0.1-0.6,0-0.7s0.3-0.4,0.3-0.3s0,0.5,0,0.5s0.4,0.3,0.5-0.2c0-0.5,0.2-0.8,0.4-0.8
	c0.2,0.1,0.6-0.3,0.6,0s0.3,0.7,0.3,0.7l0.4-0.1c0,0-0.1-0.1,0.1-0.4c0.3-0.6,0.3-0.5,0.3-0.8s0.6-0.6,0.6-0.3
	C1920,444.3,1920.6,444.2,1920.4,444.7z"/>
<path class="st1" d="M1920.4,525.3c0-0.2-0.1,0.1,0,0.4C1920.4,525.5,1920.4,525.4,1920.4,525.3z"/>
<path class="st2" d="M764,1130.8c0.3-0.2,0.1-0.9,0-1.6c0,0.2-0.1,0.5-0.1,0.7C763.9,1130,763.9,1130.4,764,1130.8
	C764,1130.8,764,1130.8,764,1130.8z"/>
<path class="st2" d="M776,1128.5c0-0.1-0.1-0.1-0.1-0.2C775.9,1128.4,775.9,1128.5,776,1128.5z"/>
<path class="st2" d="M1189.6,1014.6c0.3-0.2,0.1-0.9,0-1.6c0,0.2-0.1,0.5-0.1,0.7C1189.5,1013.8,1189.5,1014.2,1189.6,1014.6
	C1189.5,1014.6,1189.6,1014.6,1189.6,1014.6z"/>
<path class="st2" d="M1201.6,1012.3c0-0.1-0.1-0.1-0.1-0.2C1201.5,1012.2,1201.5,1012.3,1201.6,1012.3z"/>
</svg>
