<?xml version="1.0" encoding="utf-8"?>
<!-- Generator: Adobe Illustrator 24.1.1, SVG Export Plug-In . SVG Version: 6.00 Build 0)  -->
<svg version="1.1" id="_x2014_ÎÓÈ_x5F_1" xmlns="http://www.w3.org/2000/svg" xmlns:xlink="http://www.w3.org/1999/xlink"
	 x="0px" y="0px" viewBox="0 0 1920 1580.6" style="enable-background:new 0 0 1920 1580.6;" xml:space="preserve">
<style type="text/css">
	.st0{fill:#630658;}
	.st1{fill:#301701;}
	.st2{fill:#261101;}
</style>
<path class="st0" d="M1920.4,750v436.6H0.7V657.1c0,0,8.3-9.6,18-19.6s20.9-24.2,26.6-21.8c2.2-8.1,10.2-15.5,19-30.8
	c8.8-11.1,18.4-34.9,23.9-23.4c8.5,12,19.1,18.4,32.2,27c6.5,9.1,13.7,16.9,21.5,23.4s16.2,11.5,25.4,14.9c5.6,5,12.3,3.7,19.7,15.6
	c7.4,13.5,15.5,9.1,24,17.2c8.5,3.3,17.5,12.8,26.5,21.2c9.1,0.6,18.3,14.5,27.3,17.4c18.1,14.8,35.6,38.1,50,33.7
	c14.5,3,25.9,17.4,32,18.3c4.1,1.6,10.5,4.7,18.6,7.3c8,2.6,17.6,4.6,27.9,3.8c10.3-5.5,21.3-6.9,32.2,6.1
	c10.9-6.7,21.7,8.1,31.4,5.8c9.8-12.8,18.6,0,25.6,4.9c7,4.8,12.2,6.7,14.7,3.6c3.7-9.4,16.1-3,33.2,6c17.1,4.3,38.8,18.8,61.3,9.2
	c11.2,11.8,22.7,13.5,33.8,12.8s22-3.8,32-1.6c10,2.1,19.3,1.1,27.2,6.1c7.9-2.5,14.6,5.3,19,6.8c7,4.9,13.8,7.2,20,10
	c7.9-0.2,15.1,0,21.2,4.9c8.5-1.5,16-0.9,22.6,4.2c8.1-3.6,15.4-2.8,22.7,3c7.1-2.4,14.1-0.4,21,2.7c1.4,0.1,2.7,0.2,4.1,0.4
	c6.1,0.8,12-0.6,17.9-2.2c3.9-1.1,8.5,9.1,13.5,6.3c6.4,5.5,13.6,14.6,21.3-0.8c8.3-1.9,18.7,11.4,30.3,0
	c11.5-5.5,24.2-7.4,36.7-4.3c12.6,2.7,25-3.3,36.3-4.3c7.5,4.7,13.2-4,16.1,7.1c4.8,9.3,16.6,5.9,31.3,13.6
	c14.7,3.7,32.3,4,48.6,2.6c7.8-6.9,15.8,1.9,23.5-5.5c7.7-7.8,15.2-0.9,22,3.2c13.5,5.5,24.2-9.3,28.3-11.6
	c2.8,2.4,8.4,0.9,16.1-8.1c4.5-5.3,10.6-9,17.3-11c9.4-2.9,20.1-11,31.5-22.3c15.7-22.3,32.6-16.2,49.1-23.8
	c16.5,1.2,32.5-16.6,46.4-20c6.3-2.5,12.6-6.3,18.9-11.2c6.3-4.8,12.7-10.6,19.2-17c12.9-15.6,26-26.4,39.3-43.1
	c13.4-20.7,27-22.5,41-40.8c14-5.9,28.4-23.8,43.2-21.3c1.8-6.7,3.6-0.6,5.3,1c9,10.8,17.7-0.3,26.1,4.1c8.3-5.9,16.3-7,24,0.7
	c13.4,0.5,25.9-0.6,37.5-1.8s22.4-2.5,32.4-2.9c0-7.5,0,3.5,0,0c6.1,6.1,11.8,14.6,17.3,2.8c5.5-0.9,10.7,7.6,15.7,7.7
	c12-3.9,26,7.5,41.2,16.7c15.3,6.1,31.8-1.3,48.7,8.1c16.9-5.2,34.3,2.7,51.3,14.2c17-4,33,6.8,47.1,18.6
	c14.1,11.3,26.3,9.2,35.8,12.4c9.4,3.3,16.1,5.7,19.1,7.6C1874,726.2,1920.4,750,1920.4,750z"/>
<path class="st1" d="M1920.4,444.7c-0.3,0.5-0.7,0.7-0.7,0.7s-0.5,0.7-0.6,0.7s-0.1,0-0.3,0.2c-0.2,0.2-0.8-0.3-1,0
	s-0.8-0.1-0.6,0.3c0.2,0.4-0.7,0-0.7,0c0-0.2,0.1-0.6,0-0.7s0.3-0.4,0.3-0.3s0,0.5,0,0.5s0.4,0.3,0.5-0.2c0-0.5,0.2-0.8,0.4-0.8
	c0.2,0.1,0.6-0.3,0.6,0s0.3,0.7,0.3,0.7l0.4-0.1c0,0-0.1-0.1,0.1-0.4c0.3-0.6,0.3-0.5,0.3-0.8s0.6-0.6,0.6-0.3
	C1920,444.3,1920.6,444.2,1920.4,444.7z"/>
<path class="st1" d="M1920.4,525.3c0-0.2-0.1,0.1,0,0.4C1920.4,525.5,1920.4,525.4,1920.4,525.3z"/>
<path class="st0" d="M764,1130.8c0.3-0.2,0.1-0.9,0-1.6c0,0.2-0.1,0.5-0.1,0.7C763.9,1130,763.9,1130.4,764,1130.8
	C764,1130.8,764,1130.8,764,1130.8z"/>
<path class="st0" d="M776,1128.5c0-0.1-0.1-0.1-0.1-0.2C775.9,1128.4,775.9,1128.5,776,1128.5z"/>
<path class="st2" d="M1189.6,1014.6c0.3-0.2,0.1-0.9,0-1.6c0,0.2-0.1,0.5-0.1,0.7C1189.5,1013.8,1189.5,1014.2,1189.6,1014.6
	C1189.5,1014.6,1189.6,1014.6,1189.6,1014.6z"/>
<path class="st2" d="M1201.6,1012.3c0-0.1-0.1-0.1-0.1-0.2C1201.5,1012.2,1201.5,1012.3,1201.6,1012.3z"/>
</svg>
